<svg xmlns="http://www.w3.org/2000/svg" viewBox="0 0 1090 705" width="1090" height="705">
<path d="M 573.0,578.0 L 533.0,578.0 L 507.0,629.0 L 546.0,629.0 Z" fill="#A79F9D" fill-rule="evenodd"/>
<path d="M 749.0,621.0 L 752.0,625.0 L 763.0,629.0 L 997.0,628.0 L 1007.0,625.0 L 1019.0,617.0 L 1029.0,599.0 L 1029.0,593.0 L 1022.0,587.0 L 1009.0,584.0 L 941.0,584.0 L 939.0,582.0 L 945.0,572.0 L 1000.0,572.0 L 1002.0,576.0 L 1041.0,576.0 L 1045.0,569.0 L 1045.0,565.0 L 1040.0,559.0 L 1028.0,555.0 L 928.0,555.0 L 913.0,560.0 L 907.0,566.0 L 897.0,585.0 L 897.0,589.0 L 900.0,594.0 L 912.0,599.0 L 985.0,600.0 L 987.0,602.0 L 980.0,612.0 L 794.0,612.0 L 793.0,609.0 L 800.0,599.0 L 878.0,599.0 L 886.0,586.0 L 885.0,585.0 L 809.0,585.0 L 807.0,583.0 L 814.0,572.0 L 891.0,572.0 L 901.0,556.0 L 770.0,555.0 L 774.0,561.0 L 774.0,569.0 L 749.0,616.0 Z" fill="#A79F9D" fill-rule="evenodd"/>
<path d="M 572.0,628.0 L 621.0,629.0 L 633.0,605.0 L 639.0,599.0 L 656.0,591.0 L 704.0,629.0 L 748.0,629.0 L 694.0,587.0 L 691.0,582.0 L 695.0,578.0 L 760.0,555.0 L 705.0,555.0 L 653.0,574.0 L 650.0,572.0 L 658.0,555.0 L 591.0,555.0 L 599.0,563.0 L 600.0,574.0 Z" fill="#A79F9D" fill-rule="evenodd"/>
<path d="M 537.0,572.0 L 577.0,572.0 L 586.0,556.0 L 545.0,555.0 Z" fill="#A79F9D" fill-rule="evenodd"/>
<path d="M 347.0,629.0 L 475.0,629.0 L 484.0,627.0 L 498.0,619.0 L 507.0,609.0 L 510.0,602.0 L 510.0,595.0 L 505.0,589.0 L 519.0,576.0 L 523.0,568.0 L 523.0,562.0 L 521.0,559.0 L 509.0,555.0 L 378.0,555.0 L 382.0,561.0 L 382.0,568.0 L 349.0,623.0 Z M 390.0,611.0 L 397.0,599.0 L 470.0,598.0 L 476.0,601.0 L 475.0,606.0 L 466.0,612.0 Z M 406.0,584.0 L 413.0,572.0 L 483.0,572.0 L 486.0,575.0 L 486.0,578.0 L 477.0,585.0 Z" fill="#A79F9D" fill-rule="evenodd"/>
<path d="M 303.0,276.0 L 304.0,278.0 L 311.0,278.0 L 306.0,275.0 Z" fill="#A79F9D" fill-rule="evenodd"/>
<path d="M 1088.0,529.0 L 1088.0,505.0 L 1086.0,494.0 L 1078.0,473.0 L 1066.0,455.0 L 1052.0,441.0 L 1035.0,429.0 L 1013.0,419.0 L 992.0,414.0 L 992.0,409.0 L 962.0,403.0 L 963.0,401.0 L 971.0,399.0 L 1011.0,397.0 L 969.0,387.0 L 939.0,384.0 L 914.0,384.0 L 892.0,347.0 L 875.0,313.0 L 883.0,312.0 L 912.0,316.0 L 932.0,316.0 L 950.0,304.0 L 958.0,301.0 L 964.0,301.0 L 1023.0,315.0 L 1046.0,323.0 L 1067.0,332.0 L 1067.0,320.0 L 1061.0,312.0 L 1038.0,290.0 L 994.0,260.0 L 978.0,246.0 L 969.0,231.0 L 946.0,164.0 L 940.0,153.0 L 927.0,137.0 L 873.0,86.0 L 871.0,95.0 L 898.0,126.0 L 913.0,148.0 L 910.0,150.0 L 898.0,141.0 L 890.0,133.0 L 872.0,108.0 L 850.0,84.0 L 763.0,2.0 L 827.0,68.0 L 841.0,86.0 L 842.0,97.0 L 834.0,118.0 L 834.0,122.0 L 844.0,127.0 L 855.0,127.0 L 862.0,124.0 L 867.0,131.0 L 866.0,135.0 L 848.0,144.0 L 843.0,151.0 L 843.0,157.0 L 847.0,163.0 L 852.0,161.0 L 855.0,162.0 L 853.0,167.0 L 855.0,176.0 L 840.0,194.0 L 820.0,172.0 L 796.0,161.0 L 788.0,151.0 L 780.0,151.0 L 777.0,148.0 L 776.0,141.0 L 773.0,137.0 L 750.0,137.0 L 743.0,133.0 L 737.0,107.0 L 742.0,85.0 L 733.0,69.0 L 721.0,57.0 L 716.0,54.0 L 712.0,54.0 L 710.0,56.0 L 709.0,87.0 L 714.0,97.0 L 717.0,99.0 L 727.0,100.0 L 730.0,103.0 L 730.0,139.0 L 713.0,151.0 L 695.0,149.0 L 688.0,152.0 L 680.0,162.0 L 680.0,172.0 L 685.0,180.0 L 683.0,182.0 L 646.0,176.0 L 633.0,176.0 L 626.0,179.0 L 554.0,245.0 L 524.0,279.0 L 508.0,277.0 L 442.0,277.0 L 411.0,273.0 L 380.0,263.0 L 365.0,255.0 L 344.0,239.0 L 326.0,233.0 L 279.0,231.0 L 229.0,222.0 L 97.0,222.0 L 94.0,225.0 L 94.0,229.0 L 97.0,232.0 L 134.0,232.0 L 151.0,236.0 L 171.0,244.0 L 139.0,295.0 L 139.0,302.0 L 124.0,332.0 L 125.0,336.0 L 128.0,337.0 L 164.0,302.0 L 175.0,297.0 L 221.0,298.0 L 263.0,306.0 L 302.0,322.0 L 329.0,341.0 L 338.0,351.0 L 349.0,357.0 L 399.0,374.0 L 429.0,387.0 L 436.0,393.0 L 436.0,396.0 L 440.0,401.0 L 454.0,406.0 L 460.0,412.0 L 465.0,429.0 L 470.0,436.0 L 491.0,448.0 L 487.0,451.0 L 465.0,451.0 L 438.0,426.0 L 410.0,408.0 L 372.0,391.0 L 338.0,380.0 L 284.0,370.0 L 284.0,372.0 L 293.0,378.0 L 255.0,382.0 L 212.0,361.0 L 180.0,361.0 L 172.0,365.0 L 168.0,379.0 L 167.0,408.0 L 172.0,422.0 L 157.0,440.0 L 143.0,462.0 L 144.0,463.0 L 155.0,463.0 L 165.0,466.0 L 191.0,441.0 L 208.0,429.0 L 228.0,419.0 L 258.0,411.0 L 308.0,411.0 L 325.0,414.0 L 368.0,426.0 L 322.0,387.0 L 323.0,385.0 L 345.0,390.0 L 378.0,402.0 L 407.0,418.0 L 418.0,429.0 L 418.0,440.0 L 412.0,445.0 L 399.0,451.0 L 367.0,460.0 L 518.0,460.0 L 498.0,436.0 L 470.0,409.0 L 451.0,394.0 L 417.0,373.0 L 425.0,371.0 L 480.0,393.0 L 494.0,393.0 L 549.0,377.0 L 652.0,404.0 L 682.0,404.0 L 755.0,381.0 L 678.0,397.0 L 659.0,397.0 L 574.0,376.0 L 569.0,372.0 L 627.0,356.0 L 690.0,345.0 L 729.0,317.0 L 755.0,307.0 L 773.0,303.0 L 794.0,301.0 L 822.0,302.0 L 850.0,307.0 L 881.0,356.0 L 879.0,358.0 L 870.0,358.0 L 805.0,348.0 L 764.0,346.0 L 701.0,352.0 L 655.0,362.0 L 709.0,356.0 L 776.0,355.0 L 884.0,366.0 L 890.0,372.0 L 913.0,428.0 L 928.0,418.0 L 945.0,411.0 L 956.0,409.0 L 978.0,411.0 L 980.0,414.0 L 959.0,444.0 L 986.0,443.0 L 1015.0,450.0 L 1039.0,463.0 L 1053.0,476.0 L 1067.0,498.0 L 1073.0,517.0 L 1075.0,552.0 L 1072.0,572.0 L 1074.0,571.0 L 1081.0,556.0 Z M 195.0,248.0 L 199.0,240.0 L 222.0,240.0 L 222.0,249.0 L 225.0,250.0 L 238.0,248.0 L 248.0,253.0 L 254.0,252.0 L 269.0,255.0 L 308.0,258.0 L 343.0,264.0 L 373.0,273.0 L 397.0,284.0 L 421.0,292.0 L 448.0,299.0 L 489.0,306.0 L 491.0,308.0 L 485.0,314.0 L 452.0,313.0 L 411.0,304.0 L 366.0,286.0 L 354.0,283.0 L 330.0,282.0 L 330.0,285.0 L 327.0,288.0 L 308.0,287.0 L 294.0,282.0 L 286.0,273.0 L 232.0,255.0 L 226.0,259.0 L 222.0,259.0 L 199.0,251.0 Z M 867.0,107.0 L 884.0,125.0 L 881.0,129.0 L 865.0,110.0 Z" fill="#A79F9D" fill-rule="evenodd"/>
<path d="M 630.0,487.0 L 670.0,488.0 L 672.0,490.0 L 642.0,544.0 L 643.0,545.0 L 681.0,545.0 L 714.0,488.0 L 748.0,488.0 L 752.0,492.0 L 768.0,517.0 L 768.0,523.0 L 757.0,545.0 L 796.0,545.0 L 812.0,518.0 L 894.0,471.0 L 848.0,471.0 L 801.0,498.0 L 783.0,471.0 L 639.0,471.0 Z" fill="#003462" fill-rule="evenodd"/>
<path d="M 583.0,488.0 L 622.0,488.0 L 631.0,471.0 L 592.0,471.0 Z" fill="#003462" fill-rule="evenodd"/>
<path d="M 1.0,534.0 L 5.0,540.0 L 22.0,545.0 L 127.0,545.0 L 138.0,553.0 L 179.0,553.0 L 172.0,547.0 L 173.0,545.0 L 325.0,545.0 L 389.0,498.0 L 393.0,497.0 L 412.0,545.0 L 591.0,545.0 L 619.0,495.0 L 579.0,494.0 L 560.0,528.0 L 492.0,528.0 L 491.0,525.0 L 520.0,471.0 L 464.0,471.0 L 471.0,479.0 L 471.0,488.0 L 449.0,529.0 L 447.0,530.0 L 445.0,528.0 L 426.0,471.0 L 365.0,471.0 L 368.0,476.0 L 367.0,484.0 L 313.0,523.0 L 312.0,520.0 L 338.0,471.0 L 299.0,471.0 L 270.0,524.0 L 266.0,528.0 L 207.0,528.0 L 205.0,525.0 L 230.0,481.0 L 234.0,471.0 L 185.0,471.0 L 188.0,476.0 L 187.0,486.0 L 161.0,534.0 L 157.0,537.0 L 146.0,528.0 L 169.0,486.0 L 169.0,480.0 L 164.0,475.0 L 150.0,471.0 L 54.0,471.0 L 41.0,474.0 L 33.0,478.0 L 27.0,484.0 L 4.0,525.0 Z M 44.0,526.0 L 66.0,488.0 L 126.0,489.0 L 121.0,501.0 L 105.0,528.0 L 46.0,528.0 Z" fill="#003462" fill-rule="evenodd"/>
<path d="M 380.0,514.0 L 374.0,516.0 L 369.0,521.0 L 367.0,525.0 L 367.0,534.0 L 374.0,543.0 L 384.0,545.0 L 390.0,543.0 L 395.0,538.0 L 397.0,534.0 L 397.0,525.0 L 390.0,516.0 Z" fill="#D51C29" fill-rule="evenodd"/>
<text x="1045" y="692" text-anchor="end" font-family="Helvetica, Arial, sans-serif" font-weight="400" font-size="40" letter-spacing="16" fill="#A79F9D">venezuela</text>
</svg>