<svg xmlns="http://www.w3.org/2000/svg" viewBox="0 0 827 585"><path d="M 826.0,411.0 L 825.0,392.0 L 821.0,378.0 L 811.0,360.0 L 798.0,346.0 L 774.0,331.0 L 751.0,325.0 L 750.0,320.0 L 732.0,317.0 L 729.0,315.0 L 730.0,313.0 L 765.0,311.0 L 732.0,303.0 L 689.0,301.0 L 671.0,271.0 L 658.0,245.0 L 660.0,243.0 L 687.0,247.0 L 702.0,247.0 L 718.0,237.0 L 728.0,235.0 L 768.0,244.0 L 806.0,259.0 L 809.0,259.0 L 809.0,250.0 L 787.0,227.0 L 773.0,216.0 L 749.0,202.0 L 737.0,190.0 L 731.0,178.0 L 715.0,130.0 L 710.0,120.0 L 695.0,102.0 L 658.0,67.0 L 656.0,67.0 L 655.0,73.0 L 676.0,97.0 L 688.0,115.0 L 685.0,116.0 L 678.0,111.0 L 666.0,97.0 L 663.0,100.0 L 650.0,85.0 L 653.0,83.0 L 664.0,95.0 L 650.0,77.0 L 627.0,53.0 L 571.0,1.0 L 629.0,62.0 L 632.0,68.0 L 632.0,76.0 L 626.0,94.0 L 633.0,98.0 L 643.0,98.0 L 648.0,96.0 L 652.0,101.0 L 649.0,106.0 L 640.0,110.0 L 634.0,115.0 L 634.0,124.0 L 636.0,126.0 L 642.0,126.0 L 642.0,139.0 L 636.0,143.0 L 632.0,150.0 L 630.0,150.0 L 612.0,132.0 L 597.0,126.0 L 590.0,118.0 L 582.0,117.0 L 580.0,109.0 L 577.0,106.0 L 558.0,106.0 L 554.0,103.0 L 550.0,88.0 L 550.0,76.0 L 553.0,70.0 L 553.0,64.0 L 545.0,51.0 L 535.0,42.0 L 530.0,41.0 L 528.0,44.0 L 528.0,69.0 L 532.0,75.0 L 541.0,77.0 L 544.0,80.0 L 544.0,108.0 L 529.0,118.0 L 516.0,116.0 L 510.0,119.0 L 505.0,126.0 L 505.0,134.0 L 509.0,140.0 L 507.0,142.0 L 478.0,137.0 L 468.0,137.0 L 463.0,139.0 L 410.0,187.0 L 382.0,218.0 L 309.0,216.0 L 291.0,213.0 L 272.0,207.0 L 255.0,198.0 L 241.0,187.0 L 228.0,182.0 L 194.0,181.0 L 149.0,173.0 L 48.0,173.0 L 44.0,176.0 L 47.0,181.0 L 77.0,181.0 L 101.0,188.0 L 104.0,191.0 L 79.0,231.0 L 79.0,237.0 L 67.0,261.0 L 69.0,263.0 L 71.0,263.0 L 96.0,238.0 L 107.0,232.0 L 137.0,232.0 L 177.0,239.0 L 210.0,253.0 L 229.0,267.0 L 235.0,274.0 L 246.0,280.0 L 288.0,294.0 L 308.0,303.0 L 313.0,308.0 L 315.0,313.0 L 326.0,317.0 L 332.0,323.0 L 337.0,339.0 L 356.0,351.0 L 355.0,353.0 L 349.0,354.0 L 335.0,353.0 L 316.0,335.0 L 295.0,321.0 L 265.0,307.0 L 234.0,297.0 L 193.0,290.0 L 200.0,296.0 L 170.0,299.0 L 135.0,282.0 L 109.0,283.0 L 103.0,290.0 L 101.0,318.0 L 105.0,331.0 L 96.0,342.0 L 73.0,379.0 L 85.0,371.0 L 101.0,364.0 L 119.0,346.0 L 133.0,336.0 L 144.0,330.0 L 165.0,323.0 L 176.0,321.0 L 208.0,321.0 L 226.0,324.0 L 258.0,333.0 L 225.0,305.0 L 225.0,302.0 L 241.0,305.0 L 264.0,313.0 L 284.0,323.0 L 299.0,336.0 L 300.0,342.0 L 295.0,348.0 L 285.0,353.0 L 261.0,360.0 L 376.0,360.0 L 377.0,359.0 L 362.0,342.0 L 337.0,318.0 L 298.0,292.0 L 304.0,290.0 L 339.0,305.0 L 350.0,308.0 L 356.0,308.0 L 402.0,295.0 L 482.0,316.0 L 507.0,316.0 L 560.0,299.0 L 503.0,311.0 L 489.0,311.0 L 420.0,294.0 L 418.0,291.0 L 459.0,279.0 L 510.0,271.0 L 541.0,249.0 L 563.0,240.0 L 582.0,236.0 L 605.0,235.0 L 637.0,239.0 L 647.0,252.0 L 662.0,279.0 L 650.0,280.0 L 601.0,272.0 L 562.0,271.0 L 524.0,275.0 L 492.0,282.0 L 532.0,278.0 L 590.0,278.0 L 664.0,286.0 L 672.0,295.0 L 688.0,335.0 L 698.0,328.0 L 715.0,321.0 L 737.0,321.0 L 741.0,324.0 L 725.0,347.0 L 748.0,347.0 L 768.0,352.0 L 785.0,361.0 L 800.0,375.0 L 810.0,392.0 L 814.0,405.0 L 815.0,440.0 L 813.0,448.0 L 820.0,436.0 Z M 123.0,193.0 L 127.0,187.0 L 144.0,187.0 L 146.0,189.0 L 144.0,193.0 L 147.0,195.0 L 156.0,193.0 L 167.0,198.0 L 173.0,197.0 L 240.0,206.0 L 258.0,211.0 L 301.0,228.0 L 324.0,234.0 L 350.0,238.0 L 356.0,241.0 L 351.0,246.0 L 326.0,245.0 L 297.0,239.0 L 262.0,225.0 L 247.0,221.0 L 230.0,221.0 L 227.0,225.0 L 210.0,224.0 L 202.0,221.0 L 194.0,213.0 L 152.0,199.0 L 148.0,202.0 L 143.0,202.0 L 126.0,196.0 Z" fill="#A79F9D" fill-rule="evenodd"/></svg>